<svg xmlns="http://www.w3.org/2000/svg" width="200" height="200" fill="none" viewBox="0 0 200 200">
<!-- SVG created with Arrow, by QuiverAI (https://quiver.ai) -->
  <path d="m155.5 57.41c2.11-8.64-1.69-20.29-7.22-20.42-4.38-0.11-7.6 4.92-9.14 8.84-6.77-2.74-14.22-3-18.19-2.85-7.15 0.27-14.14 1.97-17.8 4.04-2.77-4.33-6.84-9.28-11.24-9.21-7.21-0.09-9.88 12.11-8.13 22.08l0.94 4.87c-6.51-5.89-14.45-11.04-29.21-11.04-20.21 0-38.42 16.12-38.52 35.43-0.08 10.75 6.47 23.82 20.61 24.27l4.97 0.28c-5.86 9.33-7.3 20.19-6.77 30.53 1.01 19.23 17.36 34.58 38.1 35.18l1.16 0.02c4.72 5.24 12.22 11.26 20.16 12.88 8.38 1.75 16.96 2.32 17.75-2.46l0.16-1.36c6.2 0.25 13.99-0.77 18.57-1.68 4.01 3.11 9.46 4.2 15.28 4.61 6.16 0.44 10.97-0.75 10.97-3.23 0-2.28-1.21-3.7-3.94-4.83 4.27-3.24 7.14-8.58 7.93-9.59l1.22 0.26c3.85 0.78 4.75-2.91 5.44-6.32l5.51-23.55 1.79-0.23c3.85-0.48 6.3-3.51 6.5-7.79 0.22-3.82-1.5-6.08-4-7.08l0.29-1.96 0.52-6.79c0.43-3.34-1.33-5.03-4.87-5.49l-5.69-1-0.14-2.2c3.8-4.07 6.76-8.76 6.92-15.87-0.19-8.63-4.51-14.13-9.18-17.1-1.9-8.63-6.13-15.9-10.75-21.24z" fill="#F9A664" stroke="#6E3529" stroke-linecap="round" stroke-linejoin="round" stroke-miterlimit="10" stroke-width="2.5"/>
  <path d="m140.9 45.23c2.07-4.17 5.28-8.12 8.25-7.48 5.82 1.29 7.64 11.69 6.91 18.98l-0.42 0.11c-3.85-4.53-9.25-8.73-14.74-10.85v-0.76z" fill="#E9744E" stroke="#6E3529" stroke-linecap="round" stroke-linejoin="round" stroke-miterlimit="10" stroke-width="2.5"/>
  <path d="m105.9 45.78c5.63-1.88 10.23-2.54 16.13-2.54 5.51 0 9.85 0.73 13.7 1.75 1.91 3.14 2.67 12.7 0.42 17.87-1.65 4.06-5.32 3.35-8.29-0.14-6.92-8.23-11.78-13.59-19.75-16.24l-2.21-0.7z" fill="#E9744E"/>
  <path d="m90.87 42.76c-4.8 0.67-5.55 12.08-3.04 16.63l1.95 1.34 6.35-6.03c-0.09-4.14-2.71-11.74-5.26-11.94z" fill="#F0887A" stroke="#A84F41" stroke-linecap="round" stroke-linejoin="round" stroke-miterlimit="10" stroke-width="2"/>
  <path d="m164.9 77.93c-1.91-7.72-5.16-13.89-12.94-14.12-8.52-0.27-11.27 10.99-11.27 20.63h-7.58c-4.36-10.14-9.76-18.79-19.98-18.79-9.09 0-14.28 7.93-14.28 17.26-10.68-0.54-18.15 7.4-18.26 17.15 0.11 6.65 4.95 14.8 13.05 17.46 7.3 2.52 12.53 4.28 18.4 4.64l-1.05 4.95c5.79 0.79 11.36 0.87 16.2 0.9l6.65-15.9 7.53 0.82 0.37-3.31 10.27 0.71 15.04 1.09c5.67-5.57 8.17-10.98 7.9-17.41-0.41-6.79-4.16-12.8-10.05-16.08z" fill="#FEF0D3"/>
  <path d="m164.3 83.32c-5.1 0.26-7.15 3.34-7.15 6 0 3.29 3.61 5.59 6.69 5.39 5.71-0.34 7.51-2.87 7.41-5.79-0.28-2.91-2.58-5.69-6.95-5.6z" fill="#F9B384"/>
  <path d="m102.3 86.63c-6.4-0.51-9.23 2.94-9.23 6.64 0 4.45 5.18 5.64 8.7 5.54 5.07-0.2 8.48-2.73 8.38-5.65-0.13-3.37-3.03-6.15-7.85-6.53z" fill="#F9B384"/>
  <path d="m114.9 78.26c-3.63-0.25-5.55 2.63-5.55 4.98 0 2.98 2.06 4.77 4.79 4.67 3.21-0.13 4.6-2.9 4.5-5.1-0.1-2.45-1.53-4.38-3.74-4.55z" fill="#633229"/>
  <path d="m152.1 76.5c-3.76-0.25-4.07 2.96-4.13 4.17-0.23 3.11 2.06 4.74 4.34 4.64 3.21-0.13 4-2.76 3.9-4.97-0.16-2.03-1.48-3.68-4.11-3.84z" fill="#633229"/>
  <path d="m128.4 92.33c1.12 1.92 4.48 2.1 6.32 0.66 1.72-1.37 2.38-4.88 2.11-6.91l-3.11-0.77c0.26-0.6 4.17-0.93 5.28-0.48 0.79 0.4-0.2 2.2-1.48 3.21-0.1 1.86 0.56 4.32 2.91 5.05s3.8-0.86 4.49-2.01" stroke="#633229" stroke-linecap="round" stroke-linejoin="round" stroke-miterlimit="10" stroke-width="2.5"/>
  <path d="m83.01 64.49c-7.07-7.08-15.66-10.77-27.35-10.77-19.68 0-38.56 15.19-38.66 35.37-0.07 9.39 6.02 21.31 17.85 23.24l7.33 0.9c4.89-5.7 6.23-9.62 5.43-14.37-0.98-5.71-5.3-6.72-8.2-6.32-2.45 0.23-4 1.37-4.69 3" stroke="#633229" stroke-linecap="round" stroke-linejoin="round" stroke-miterlimit="10" stroke-width="2.5"/>
  <path d="m41.91 113.2c-6.18 10.21-7.52 20.19-6.54 31.8 1.66 15.69 15.6 32 37.24 33.12l2.21-0.16-1.99-3.72c-4.42-5.6-7.19-13.23-6.75-23.23-2.35-1.96-9.17-1.22-13.91-20.37l4.49-17.71c6.3-14.18-0.84-32.31-14.65-32.31-11.19 0-17.9 9.5-17.5 16.72 0.23 5.01 2.41 10.17 6.7 12.8l4.2 1.75 6.8 0.6-0.3 0.71z" fill="#FEF0D3"/>
  <path d="m70.28 169.8c-4.86-2.53-10.35-4.62-15.07-13.68-5.93-0.8-14-2.2-18.35-14.41-0.44 5.09 1.48 15.33 7.23 22.41 7.02 8.3 15.4 13.1 26.49 13.8l2.63-0.2-2.93-7.92z" fill="#EED7BA"/>
  <path d="m52.11 129.5c-1.98 8.63-1.65 17.31 2.57 25.43 3.04 5.82 7.14 11.05 13.73 13.17l-2.18-13.1-0.95-7.12c-6.66-0.13-11.17-9.6-13.17-18.38z" fill="#E9744E"/>
  <path d="m79.89 110.1c-4.72-5.17-7.21-11.66-6.38-18.67 0.8-6.37 3.7-10.68 5.81-13.27 0.76-4.96 3.21-9.93 5.19-13.48" stroke="#633229" stroke-linecap="round" stroke-linejoin="round" stroke-miterlimit="10" stroke-width="2.5"/>
  <path d="m103.6 49.91c-3.49-5.5-7.52-11.9-12.88-11.8-6.72 0-9.52 12.2-6.82 22.74l1.85 3.96" stroke="#633229" stroke-linecap="round" stroke-linejoin="round" stroke-miterlimit="10" stroke-width="2.5"/>
  <path d="m106.4 155.2c-3.46-4.06-1.45-7.35-0.57-9.2l16.96-1.68-2.76 21.16 5.22 2.28 9.58 2.35 10.02 2.06 14.06 1.93c-1.98 3.01-4.74 5.99-5.82 7.36 2.76 1.3 4.84 2.25 4.74 5.9-0.13 2.66-5.56 3.39-11.89 2.79-6.86-0.7-10.86-1.85-13.45-3.77l-0.76-0.33c-5.49 1.51-14.65 2.18-18.74 1.71 0.86-5.1 3.04-17.66-6.59-32.56z" fill="#FEF0D3" stroke="#633229" stroke-linecap="round" stroke-linejoin="round" stroke-miterlimit="10" stroke-width="2.5"/>
  <path d="m111 184.7c1.65 1.75 2.9 3.41 1.71 6.17-1.79 4.2-17.84 2.45-24-0.37-12.11-5.95-22.44-16.35-22.71-36.39 0.34-14.18 6.16-26.87 13.81-40.16" stroke="#633229" stroke-linecap="round" stroke-linejoin="round" stroke-miterlimit="10" stroke-width="2.5"/>
  <path d="m106.8 126.1c4.03 2.82 9.59 3.09 15.08 2.95 5.23-0.2 7.24 1.99 7.24 5.03 0 6.23-8.38 10.97-16.39 11.85-4.69 0.54-7.98 0.07-11.4-0.67" fill="#F9A664"/>
  <path d="m106.1 126.1c4.03 2.82 8.69 3.09 14.75 2.95 5.66-0.2 8.24 1.15 8.24 5.03 0 5.44-8.38 10.97-16.39 11.85-3.69 0.44-6.52 0.17-11.3-0.84" stroke="#633229" stroke-linecap="round" stroke-linejoin="round" stroke-miterlimit="10" stroke-width="2.5"/>
  <path d="m123 166.2 38.77 7.86c4.39 0.9 5.4-1.86 6.34-6.55l10.34-46.26c0.79-3.55-0.12-6.04-4.51-6.7l-8.59-1.44-14.6-4.91-17.59-1.6c-3.46-0.4-4.51 1.73-5.17 5.35l-9.51 46.8c-0.91 4.2-0.15 6.55 4.52 7.45z" fill="#C9D8EA" stroke="#633229" stroke-linecap="round" stroke-linejoin="round" stroke-miterlimit="10" stroke-width="2.5"/>
  <path d="m124.6 161.5 36.59 7.53c1.18 0.27 1.75-0.74 2.21-3.08l9.61-44.65c0.4-1.85 0.06-2.45-1.59-2.72l-5.49-1.01-23.9-4.45-6.93-0.8c-1.61-0.27-2.01 0.13-2.41 2.05l-9.54 44.36c-0.54 2.03-0.27 2.37 1.45 2.77z" fill="#FEFFFE" stroke="#633229" stroke-linecap="round" stroke-linejoin="round" stroke-miterlimit="10" stroke-width="1.5"/>
  <path d="m143.8 108.8 5.29-0.8c1.22-3.38 3.17-5.66 6.07-5.53 4.52 0.13 5.61 3.59 6.17 7.21l4.83 1.92 0.5 2.42-0.87 4.75c-0.33 1.54-1.72 1.94-3.57 1.54l-17.52-3.59c-1.72-0.4-2.73-1.41-2.6-2.95l0.47-3.55c0.13-0.88 0.2-1.42 1.23-1.42z" fill="#C9D8EA" stroke="#633229" stroke-linecap="round" stroke-linejoin="round" stroke-miterlimit="10" stroke-width="2.5"/>
  <path d="m154.9 109.6c1.28 0 1.84-0.84 1.84-1.71 0-1.08-0.79-1.75-1.84-1.75-1.15 0-1.84 0.87-1.84 1.67 0 0.94 0.76 1.79 1.84 1.79z" fill="#633229"/>
  <path d="m135.8 134.3c2.97 0.67 4.62-2.54 6.27-4.67 2.05-2.59 4.67-2.12 5.3 1.6 0.66 3.59 1.35 7.91 3.3 9.13 2.11 1.29 4.22-4.45 6.5-5.12 2.28-0.74 2.58 2.61 5.07 2.48" stroke="#809FBD" stroke-linecap="round" stroke-linejoin="round" stroke-miterlimit="10" stroke-width="2.5"/>
  <path d="m134.7 149c1.36 0 1.57-0.9 1.57-1.41 0-0.83-0.66-1.26-1.3-1.26-0.94 0-1.47 0.77-1.47 1.43 0 0.74 0.53 1.24 1.2 1.24z" fill="#809FBD"/>
  <path d="m140.5 148.7 17.83 3.42" stroke="#B3C8DB" stroke-linecap="round" stroke-linejoin="round" stroke-miterlimit="10" stroke-width="2.5"/>
  <path d="m138.7 155.1 18.2 3.32" stroke="#B3C8DB" stroke-linecap="round" stroke-linejoin="round" stroke-miterlimit="10" stroke-width="2.5"/>
  <path d="m133.4 155.4c1.18 0 1.51-0.9 1.51-1.47 0-0.77-0.6-1.37-1.37-1.37-0.94 0-1.47 0.73-1.47 1.47 0 0.77 0.6 1.37 1.33 1.37z" fill="#809FBD"/>
  <path d="m177 130.1c-2.97 0.47-5.46 4.16-5.46 7.95 0 3.69 1.88 6.31 4.51 6.11 3.36-0.27 5.85-4.02 5.85-8.3-0.1-3.82-1.95-6.17-4.9-5.76z" fill="#F08855" stroke="#633229" stroke-linecap="round" stroke-linejoin="round" stroke-miterlimit="10" stroke-width="2.5"/>
  <path d="m143.5 182.2c-7.3 4.96-15.3 5.13-15.63 5.33" stroke="#6E3529" stroke-linecap="round" stroke-linejoin="round" stroke-miterlimit="10" stroke-width="2.5"/>
  <path d="m107.1 23.09c-6.13 1.37-9.79 3.56-9.79 5.12 0 1.72 2.9 3.15 9.59 4.59" stroke="#F9D085" stroke-linecap="round" stroke-linejoin="round" stroke-miterlimit="10" stroke-width="2.5"/>
  <path d="m134.4 23.09c6.73 1.44 9.91 2.82 9.91 4.32 0 1.65-3.69 3.41-9.78 5.09" stroke="#F9D085" stroke-linecap="round" stroke-linejoin="round" stroke-miterlimit="10" stroke-width="2.5"/>
  <path d="m104.9 11.46 3.29 3.35" stroke="#F9D085" stroke-linecap="round" stroke-linejoin="round" stroke-miterlimit="10" stroke-width="3"/>
  <path d="m120.1 7v5.33" stroke="#F9D085" stroke-linecap="round" stroke-linejoin="round" stroke-miterlimit="10" stroke-width="3"/>
  <path d="m135.7 11.06-3.07 3.48" stroke="#F9D085" stroke-linecap="round" stroke-linejoin="round" stroke-miterlimit="10" stroke-width="3"/>
  <path d="m112.6 34.18 4.19-11.94c0.34-0.95 0.88-1.54 1.79-1.51 0.87 0.03 1.44 0.6 1.81 1.58l3.51 9.97c0.33 0.94 0.56 1.47 0.53 1.7-0.06 0.74-0.63 1.17-1.4 1.11-0.7-0.06-1.13-0.63-1.4-1.57l-0.53-1.72-6.16-0.3-0.66 1.95c-0.33 0.87-0.76 1.37-1.49 1.31-0.73-0.07-1.17-0.57-1.1-1.24 0.04-0.34 0.43-0.81 0.91-2.39v3.05zm7.32-4.78-1.95-5.88-2.21 5.74 4.16 0.14z" fill="#7192B7"/>
  <path d="m128 20.76c1.01 0 1.41 0.67 1.41 1.95v11.21c0 1.15-0.53 1.68-1.41 1.68-1.01 0-1.48-0.67-1.48-1.88v-11.14c0-1.28 0.47-1.82 1.48-1.82z" fill="#7192B7"/>
</svg>